<?xml version="1.0" standalone="no"?><!DOCTYPE svg PUBLIC "-//W3C//DTD SVG 1.1//EN" "http://www.w3.org/Graphics/SVG/1.1/DTD/svg11.dtd"><svg t="1644849429334" class="icon" viewBox="0 0 1024 1024" version="1.1" xmlns="http://www.w3.org/2000/svg" p-id="5662" width="11" height="11" xmlns:xlink="http://www.w3.org/1999/xlink"><defs><style type="text/css"></style></defs><path d="M686.4 369.2L274.9 198.5l82.7-34 411.8 170.1-83 34.6z" fill="#807d7a" p-id="5663"></path><path d="M733 603.6c-24.3 10.1-51.1-7.7-51.1-34.1V368.8l83.1-34.6v221.5c0 21-12.6 39.9-32 47.9zM927 306.3c-4.4 0-8.9-0.8-13.3-2.6L518.4 141.5c-3.7-1.5-7.7-1.5-11.4 0L110.2 303.7c-17.9 7.3-38.3-1.3-45.6-19.1-7.3-17.9 1.3-38.3 19.1-45.6L480.5 76.7c20.8-8.5 43.7-8.5 64.4 0l395.3 162.2c17.9 7.3 26.4 27.8 19.1 45.7-5.5 13.5-18.5 21.7-32.3 21.7z" fill="#807d7a" p-id="5664"></path><path d="M961.3 264.4c0-0.1 0-0.2-0.1-0.3-0.1-0.4-0.2-0.8-0.3-1.3-0.1-0.2-0.1-0.5-0.2-0.7-0.1-0.3-0.2-0.6-0.2-0.9-0.1-0.4-0.2-0.7-0.3-1.1-0.1-0.2-0.1-0.4-0.2-0.5-0.2-0.4-0.3-0.9-0.5-1.3 0-0.1-0.1-0.2-0.1-0.3v-0.1c-0.3-0.8-0.7-1.5-1-2.3-0.1-0.1-0.1-0.3-0.2-0.4-0.3-0.6-0.7-1.3-1-1.9-0.1-0.1-0.1-0.2-0.2-0.3-0.4-0.6-0.7-1.1-1.1-1.7-0.2-0.3-0.4-0.5-0.5-0.8l-0.9-1.2c-0.3-0.4-0.6-0.7-0.9-1-0.3-0.3-0.5-0.6-0.8-0.9-0.2-0.3-0.5-0.5-0.7-0.8-0.4-0.5-0.9-0.9-1.4-1.3-0.2-0.2-0.4-0.4-0.6-0.5-0.4-0.3-0.8-0.7-1.2-1-0.2-0.1-0.3-0.3-0.5-0.4-0.6-0.5-1.2-0.9-1.8-1.3-0.1 0-0.1-0.1-0.2-0.1-4.8-3.1-10.3-5.1-16.3-5.6h-0.5c-0.8-0.1-1.6-0.1-2.3-0.1h-1.7c-0.3 0-0.6 0-1 0.1-0.2 0-0.5 0-0.7 0.1-0.5 0-1 0.1-1.5 0.2h-0.1c-3.2 0.5-6.2 1.3-9.1 2.6L518.4 401.2c-3.7 1.5-7.7 1.5-11.4 0l-396.1-162c-2.3-1-4.8-1.8-7.4-2.3h-0.2c-0.5-0.1-0.9-0.2-1.4-0.2-0.2 0-0.4 0-0.6-0.1-0.4 0-0.7-0.1-1.1-0.1-0.3 0-0.5 0-0.8-0.1-0.3 0-0.6 0-0.9-0.1h-3.9c-16.6 1.1-30 13.8-32.2 30.1v0.4c-0.1 0.4-0.1 0.8-0.1 1.2 0 0.2 0 0.5-0.1 0.7 0 0.3 0 0.6-0.1 1v449.2c0 34.7 20.7 65.6 52.8 78.7l365.7 149.5c10.4 4.2 21.3 6.4 32.2 6.4s21.9-2.1 32.3-6.4l364.3-149.5c32-13.1 52.7-44 52.7-78.6V272c0-2.4-0.3-5-0.8-7.6zM882.7 733L518.4 882.5c-3.7 1.5-7.7 1.5-11.4 0L141.3 733c-5.7-2.3-9.3-7.8-9.3-13.9V323.5L480.5 466c20.8 8.5 43.7 8.5 64.4 0l347-142.4v395.6c0.1 6.1-3.6 11.5-9.2 13.8z" fill="#807d7a" p-id="5665"></path><path d="M512.2 931.5h-0.5c-19.2 0-34.8-15.6-34.8-34.8V457.1c0-19.2 15.6-34.8 34.8-34.8h0.5c19.2 0 34.8 15.6 34.8 34.8v439.7c0 19.1-15.6 34.7-34.8 34.7z" fill="#807d7a" p-id="5666"></path></svg>