<?xml version="1.0" standalone="no"?><!DOCTYPE svg PUBLIC "-//W3C//DTD SVG 1.1//EN" "http://www.w3.org/Graphics/SVG/1.1/DTD/svg11.dtd"><svg t="1644848424468" class="icon" viewBox="0 0 1024 1024" version="1.1" xmlns="http://www.w3.org/2000/svg" p-id="42250" xmlns:xlink="http://www.w3.org/1999/xlink" width="50" height="50"><defs><style type="text/css"></style></defs><path d="M883.130164 481.272019H148.452065" fill="#807d7a" p-id="42251"></path><path d="M148.452065 356.763835H883.130164v19.155105H148.452065z" fill="#807d7a" p-id="42252"></path><path d="M148.452065 375.91894H883.130164V395.074045H148.452065z" fill="#807d7a" p-id="42253"></path><path d="M148.452065 395.074045H883.130164v19.155105H148.452065z" fill="#807d7a" p-id="42254"></path><path d="M148.452065 414.22915H883.130164v19.155106H148.452065z" fill="#807d7a" p-id="42255"></path><path d="M148.452065 433.384256H883.130164v19.155105H148.452065z" fill="#807d7a" p-id="42256"></path><path d="M148.452065 452.539361H883.130164v19.155105H148.452065z" fill="#807d7a" p-id="42257"></path><path d="M148.452065 471.694466H883.130164v19.155105H148.452065z" fill="#807d7a" p-id="42258"></path><path d="M148.452065 490.849571H883.130164v19.155106H148.452065z" fill="#807d7a" p-id="42259"></path><path d="M148.452065 510.004677H883.130164v19.155105H148.452065z" fill="#807d7a" p-id="42260"></path><path d="M148.452065 529.159782H883.130164v19.155105H148.452065z" fill="#807d7a" p-id="42261"></path><path d="M148.452065 548.314887H883.130164v19.155105H148.452065zM148.452065 586.625097H883.130164v19.155106H148.452065z" fill="#807d7a" p-id="42262"></path><path d="M148.452065 567.469992H883.130164v19.155105H148.452065z" fill="#807d7a" p-id="42263"></path><path d="M883.130164 1004.844895v19.155105H140.869836V0h742.260328v19.155105H160.024942v985.68979z" fill="#807d7a" p-id="42264"></path><path d="M883.130164 985.68979v19.155105H160.024942V19.155105H883.130164v19.155105H179.180047V985.68979z" fill="#807d7a" p-id="42265"></path><path d="M883.130164 966.534684v19.155106H179.180047V38.31021H883.130164v19.155106H198.335152v909.069368z" fill="#807d7a" p-id="42266"></path><path d="M883.130164 947.379579v19.155105H198.335152V57.465316H883.130164v19.155105H217.490257v870.759158z" fill="#807d7a" p-id="42267"></path><path d="M883.130164 928.224474v19.155105H217.490257V76.620421H883.130164V95.775526H236.645362v832.448948z" fill="#807d7a" p-id="42268"></path><path d="M883.130164 909.069369v19.155105H236.645362V95.775526h646.484802v19.155105H255.800468v794.138738z" fill="#807d7a" p-id="42269"></path><path d="M883.130164 889.914263v19.155106H255.800468v-794.138738H883.130164v19.155106H274.955573V889.914263z" fill="#807d7a" p-id="42270"></path><path d="M883.130164 870.759158v19.155105H274.955573V134.085737H883.130164v19.155105H294.110678v717.518316z" fill="#807d7a" p-id="42271"></path><path d="M883.130164 851.604053v19.155105H294.110678V153.240842H883.130164v19.155105H313.265783v679.208106z" fill="#807d7a" p-id="42272"></path><path d="M883.130164 832.448948v19.155105H313.265783V172.395947H883.130164V191.551052H332.420889v640.897896z" fill="#807d7a" p-id="42273"></path><path d="M883.130164 813.293843v19.155105H332.420889V191.551052h550.709275v19.155105H351.575994v602.587686z" fill="#807d7a" p-id="42274"></path><path d="M883.130164 774.983632v19.155105H370.731099V229.861263H883.130164v19.155105H389.886204v525.967264z" fill="#807d7a" p-id="42275"></path><path d="M883.130164 794.138737v19.155106H351.575994v-602.587686H883.130164v19.155106H370.731099V794.138737z" fill="#807d7a" p-id="42276"></path></svg>