<?xml version="1.0" standalone="no"?><!DOCTYPE svg PUBLIC "-//W3C//DTD SVG 1.1//EN" "http://www.w3.org/Graphics/SVG/1.1/DTD/svg11.dtd"><svg t="1644848838097" class="icon" viewBox="0 0 1024 1024" version="1.1" xmlns="http://www.w3.org/2000/svg" p-id="58257" xmlns:xlink="http://www.w3.org/1999/xlink" width="16" height="16"><defs><style type="text/css"></style></defs><path d="M511 961H159c-52.9 0-96-43.1-96-96V513c0-60.5 11.8-119.1 35.2-174.4 22.6-53.4 54.9-101.3 96-142.4 41.1-41.1 89-73.4 142.4-96C391.9 76.8 450.5 65 511 65s119.1 11.8 174.4 35.2c53.4 22.6 101.3 54.9 142.4 96 41.1 41.1 73.4 89 96 142.4C947.2 393.9 959 452.5 959 513s-11.8 119.1-35.2 174.4c-22.6 53.4-54.9 101.3-96 142.4s-89 73.4-142.4 96C630.1 949.2 571.5 961 511 961z m0-832c-211.7 0-384 172.3-384 384v352c0 17.6 14.4 32 32 32h352c211.7 0 384-172.3 384-384S722.7 129 511 129z" fill="#807d7a" p-id="58258"></path><path d="M319 513m-64 0a64 64 0 1 0 128 0 64 64 0 1 0-128 0Z" fill="#807d7a" p-id="58259"></path><path d="M511 513m-64 0a64 64 0 1 0 128 0 64 64 0 1 0-128 0Z" fill="#807d7a" p-id="58260"></path><path d="M703 513m-64 0a64 64 0 1 0 128 0 64 64 0 1 0-128 0Z" fill="#807d7a" p-id="58261"></path></svg>