<?xml version="1.0" standalone="no"?><!DOCTYPE svg PUBLIC "-//W3C//DTD SVG 1.1//EN" "http://www.w3.org/Graphics/SVG/1.1/DTD/svg11.dtd"><svg t="1644848699392" class="icon" viewBox="0 0 1024 1024" version="1.1" xmlns="http://www.w3.org/2000/svg" p-id="47874" width="16" height="16" xmlns:xlink="http://www.w3.org/1999/xlink"><defs><style type="text/css"></style></defs><path d="M622.359273 342.714182c-35.746909-35.700364-38.725818-92.253091-5.957818-130.932364L717.730909 83.781818c32.791273-43.147636 95.348364-49.105455 137.076364-16.360727 2.978909 2.955636 5.957818 2.955636 5.957818 5.934545l89.390545 89.297455c84.922182 84.805818-35.746909 313.972364-256.232727 534.202182-219.019636 218.763636-443.997091 336.290909-530.385454 254.464l-87.924364-87.808c-38.725818-38.679273-38.725818-101.189818 0-136.890182l5.957818-5.957818L209.687273 619.52c38.725818-32.721455 95.348364-29.765818 131.095272 5.957818l55.133091 55.063273a866.210909 866.210909 0 0 0 157.928728-120.552727c46.173091-46.103273 84.922182-98.210909 120.669091-157.719273l-52.13091-59.531636z" p-id="47875" fill="#807d7a"></path></svg>