<?xml version="1.0" standalone="no"?><!DOCTYPE svg PUBLIC "-//W3C//DTD SVG 1.1//EN" "http://www.w3.org/Graphics/SVG/1.1/DTD/svg11.dtd"><svg t="1644875019620" class="icon" viewBox="0 0 1024 1024" version="1.1" xmlns="http://www.w3.org/2000/svg" p-id="76139" width="32" height="32" xmlns:xlink="http://www.w3.org/1999/xlink"><defs><style type="text/css"></style></defs><path d="M127.488 150.016h769.024v163.328H127.488V150.016z" fill="#707070" p-id="76140"></path><path d="M896.512 331.264v542.72c0 25.088-20.48 45.056-45.056 45.056H173.056c-25.088 0-45.056-20.48-45.056-45.056v-542.72c-25.088 0-45.056-20.48-45.056-45.056V150.016c0-25.088 20.48-45.056 45.056-45.056h769.024c25.088 0 45.056 20.48 45.056 45.056v135.68c-0.512 25.088-20.48 45.568-45.568 45.568z m-723.456 542.72h678.4v-542.72H173.056v542.72zM896.512 150.016H127.488v135.68h769.024V150.016z m-180.736 610.816H398.848c-25.088 0-45.056-20.48-45.056-45.056v-180.736c0-25.088 20.48-45.056 45.056-45.056h316.416c25.088 0 45.056 20.48 45.056 45.056v180.736c0.512 24.576-19.968 45.056-44.544 45.056z m0-226.304H398.848v180.736h316.416v-180.736h0.512z" fill="#707070" p-id="76141"></path><path d="M653.824 620.032h-189.44c-6.656 0-11.776-4.096-11.776-9.216v-9.216c0-5.12 5.12-9.216 11.776-9.216h123.904l-23.552-11.264c-5.632-2.56-7.168-8.192-4.096-12.8l5.632-8.192c2.048-3.072 6.144-4.608 9.728-4.608 2.048 0 4.096 0.512 5.632 1.024l74.752 35.84c5.12 1.024 9.216 4.608 9.216 9.216v9.216c0 5.12-5.12 9.216-11.776 9.216z m-111.616 83.456c-2.048 0-4.096-0.512-5.632-1.024l-73.728-35.84c-5.632-0.512-10.24-4.608-10.24-9.216v-9.728c0-5.12 5.12-9.216 11.776-9.216h189.44c6.656 0 11.776 4.096 11.776 9.216v9.728c0 5.12-5.12 9.216-11.776 9.216h-123.392l23.04 11.264c5.632 2.56 7.168 8.192 4.096 12.8l-5.632 8.192c-2.048 3.072-5.632 4.608-9.728 4.608z" fill="#707070" p-id="76142"></path></svg>