<?xml version="1.0" standalone="no"?><!DOCTYPE svg PUBLIC "-//W3C//DTD SVG 1.1//EN" "http://www.w3.org/Graphics/SVG/1.1/DTD/svg11.dtd"><svg t="1644874058363" class="icon" viewBox="0 0 1024 1024" version="1.1" xmlns="http://www.w3.org/2000/svg" p-id="61273" width="10" height="10" xmlns:xlink="http://www.w3.org/1999/xlink"><defs><style type="text/css"></style></defs><path d="M756.537313 170.666667H109.532338C54.511443 170.666667 10.189055 214.989055 10.189055 270.00995v647.004975c0 55.020896 44.322388 99.343284 99.343283 99.343284h647.004975c55.020896 0 99.343284-44.322388 99.343284-99.343284V270.00995c0-55.020896-44.322388-99.343284-99.343284-99.343283z m22.925374 746.348258c0 12.736318-10.189055 22.925373-22.925374 22.925374H109.532338c-12.736318 0-22.925373-10.189055-22.925373-22.925374V270.00995c0-12.736318 10.189055-22.925373 22.925373-22.925373h647.004975c12.736318 0 22.925373 10.189055 22.925374 22.925373v647.004975z" p-id="61274"></path><path d="M914.467662 12.736318H267.462687c-20.887562 0-38.208955 17.321393-38.208956 38.208956s17.321393 38.208955 38.208956 38.208955h647.004975c12.736318 0 22.925373 10.189055 22.925373 22.925373v647.004975c0 20.887562 17.321393 38.208955 38.208955 38.208955s38.208955-17.321393 38.208955-38.208955V112.079602c0-55.020896-44.322388-99.343284-99.343283-99.343284z" p-id="61275"></path></svg>