<?xml version="1.0" standalone="no"?><!DOCTYPE svg PUBLIC "-//W3C//DTD SVG 1.1//EN" "http://www.w3.org/Graphics/SVG/1.1/DTD/svg11.dtd"><svg t="1644874944533" class="icon" viewBox="0 0 1024 1024" version="1.1" xmlns="http://www.w3.org/2000/svg" p-id="73680" width="32" height="32" xmlns:xlink="http://www.w3.org/1999/xlink"><defs><style type="text/css"></style></defs><path d="M1004 732h-125.6c-8.8 0-16-7.2-16-16 0-33.6-28-61.6-63.2-61.6S736 681.6 736 716c0 8.8-7.2 16-16 16H620.8c-8.8 0-16-7.2-16-16V285.6c0-8.8 7.2-16 16-16h212.8c4 0 8 1.6 11.2 4.8L1015.2 440c3.2 3.2 4.8 7.2 4.8 11.2v264.8c0 8.8-7.2 16-16 16z m-111.2-32h95.2V458.4l-160.8-156.8H636.8v399.2h68.8c8-44 47.2-77.6 93.6-77.6 46.4 0 85.6 33.6 93.6 76.8z" p-id="73681" fill="#707070"></path><path d="M924.8 598.4H700c-4.8 0-8-3.2-8-8V363.2c0-4.8 3.2-8 8-8h100.8c2.4 0 4 0.8 5.6 2.4l124 120.8c1.6 1.6 2.4 3.2 2.4 5.6v106.4c0 4.8-4 8-8 8z m-216.8-16h208.8V487.2L797.6 371.2H708v211.2z" p-id="73682" fill="#707070"></path><path d="M805.6 541.6h-51.2c-4.8 0-8-3.2-8-8s3.2-8 8-8h51.2c4.8 0 8 3.2 8 8s-4 8-8 8zM799.2 809.6C746.4 809.6 704 768 704 716s42.4-93.6 95.2-93.6c52.8 0 95.2 41.6 95.2 93.6s-43.2 93.6-95.2 93.6z m0-154.4c-35.2 0-63.2 27.2-63.2 61.6s28 61.6 63.2 61.6 63.2-27.2 63.2-61.6-28.8-61.6-63.2-61.6z" p-id="73683" fill="#707070"></path><path d="M799.2 753.6c-21.6 0-39.2-16.8-39.2-37.6s17.6-37.6 39.2-37.6 39.2 16.8 39.2 37.6-17.6 37.6-39.2 37.6z m0-58.4c-12.8 0-23.2 9.6-23.2 21.6s10.4 21.6 23.2 21.6c12.8 0 23.2-9.6 23.2-21.6s-10.4-21.6-23.2-21.6zM620.8 732H297.6c-8.8 0-16-7.2-16-16 0-33.6-28-61.6-63.2-61.6s-63.2 27.2-63.2 61.6c0 8.8-7.2 16-16 16H20c-8.8 0-16-7.2-16-16V230.4c0-8.8 7.2-16 16-16h600.8c8.8 0 16 7.2 16 16v485.6c0 8.8-7.2 16-16 16z m-308.8-32h292V246.4h-568v453.6h88.8c8-44 47.2-77.6 93.6-77.6s86.4 34.4 93.6 77.6z" p-id="73684" fill="#707070"></path><path d="M218.4 809.6c-52.8 0-95.2-41.6-95.2-93.6s42.4-93.6 95.2-93.6S313.6 664 313.6 716s-42.4 93.6-95.2 93.6z m0-154.4c-35.2 0-63.2 27.2-63.2 61.6s28 61.6 63.2 61.6 63.2-27.2 63.2-61.6-28-61.6-63.2-61.6z" p-id="73685" fill="#707070"></path><path d="M218.4 753.6c-21.6 0-39.2-16.8-39.2-37.6s17.6-37.6 39.2-37.6 39.2 16.8 39.2 37.6-17.6 37.6-39.2 37.6z m0-58.4c-12.8 0-23.2 9.6-23.2 21.6s10.4 21.6 23.2 21.6 23.2-9.6 23.2-21.6-10.4-21.6-23.2-21.6zM620.8 598.4H20c-4.8 0-8-3.2-8-8s3.2-8 8-8h600.8c4.8 0 8 3.2 8 8s-4 8-8 8z" p-id="73686" fill="#707070"></path></svg>