<?xml version="1.0" standalone="no"?><!DOCTYPE svg PUBLIC "-//W3C//DTD SVG 1.1//EN" "http://www.w3.org/Graphics/SVG/1.1/DTD/svg11.dtd"><svg t="1644874720616" class="icon" viewBox="0 0 1024 1024" version="1.1" xmlns="http://www.w3.org/2000/svg" p-id="67882" xmlns:xlink="http://www.w3.org/1999/xlink" width="32" height="32"><defs><style type="text/css"></style></defs><path d="M943.157895 889.263158H80.842105a80.842105 80.842105 0 0 1-80.842105-80.842105V215.578947a80.842105 80.842105 0 0 1 80.842105-80.842105h862.31579a80.842105 80.842105 0 0 1 80.842105 80.842105v592.842106a80.842105 80.842105 0 0 1-80.842105 80.842105zM80.842105 188.631579a26.947368 26.947368 0 0 0-26.947368 26.947368v592.842106a26.947368 26.947368 0 0 0 26.947368 26.947368h862.31579a26.947368 26.947368 0 0 0 26.947368-26.947368V215.578947a26.947368 26.947368 0 0 0-26.947368-26.947368z" fill="#707070" p-id="67883"></path><path d="M181.894737 427.654737h512v53.894737h-512zM181.894737 577.212632h301.002105v53.894736H181.894737z" fill="#707070" p-id="67884"></path></svg>