<?xml version="1.0" standalone="no"?><!DOCTYPE svg PUBLIC "-//W3C//DTD SVG 1.1//EN" "http://www.w3.org/Graphics/SVG/1.1/DTD/svg11.dtd"><svg t="1644850760013" class="icon" viewBox="0 0 1024 1024" version="1.1" xmlns="http://www.w3.org/2000/svg" p-id="19023" width="16" height="16" xmlns:xlink="http://www.w3.org/1999/xlink"><defs><style type="text/css"></style></defs><path d="M512 102.4c87.04 0 153.6 66.56 153.6 153.6s-66.56 153.6-153.6 153.6-153.6-66.56-153.6-153.6 66.56-153.6 153.6-153.6m0-102.4C368.64 0 256 112.64 256 256s112.64 256 256 256 256-112.64 256-256-112.64-256-256-256zM819.2 716.8c56.32 0 102.4 46.08 102.4 102.4v102.4H102.4v-102.4c0-56.32 46.08-102.4 102.4-102.4h614.4m0-102.4H204.8c-112.64 0-204.8 92.16-204.8 204.8v102.4c0 56.32 46.08 102.4 102.4 102.4h819.2c56.32 0 102.4-46.08 102.4-102.4v-102.4c0-112.64-92.16-204.8-204.8-204.8z" p-id="19024" fill="#FFFFFF"></path></svg>