<?xml version="1.0" standalone="no"?><!DOCTYPE svg PUBLIC "-//W3C//DTD SVG 1.1//EN" "http://www.w3.org/Graphics/SVG/1.1/DTD/svg11.dtd"><svg t="1645790950243" class="icon" viewBox="0 0 1024 1024" version="1.1" xmlns="http://www.w3.org/2000/svg" p-id="7466" xmlns:xlink="http://www.w3.org/1999/xlink" width="20" height="20"><defs><style type="text/css"></style></defs><path d="M512 512m-512 0a512 512 0 1 0 1024 0 512 512 0 1 0-1024 0Z" fill="#FF3B3B" fill-opacity=".102" p-id="7467"></path><path d="M731.409067 318.577778h11.218489a91.022222 91.022222 0 0 1 91.022222 91.022222v227.555556a91.022222 91.022222 0 0 1-91.022222 91.022222H631.466667c-20.297956 0 84.5824-29.855289 84.5824-121.787734 0-65.3312-13.334756-287.812267 15.36-287.812266z" fill="#FF3B3B" fill-opacity=".254" p-id="7468"></path><path d="M341.492622 273.567289c82.443378-6.257778 142.973156-9.398044 181.885156-9.398045s99.441778 3.140267 181.885155 9.398045A147.911111 147.911111 0 0 1 841.955556 421.0688v184.502044a147.911111 147.911111 0 0 1-133.848178 147.228445c-83.581156 7.9872-145.043911 11.992178-184.7296 11.992178-39.685689 0-101.148444-4.004978-184.7296-11.992178A147.911111 147.911111 0 0 1 204.8 605.570844v-184.502044a147.911111 147.911111 0 0 1 136.692622-147.501511z m3.458845 45.397333A102.4 102.4 0 0 0 250.311111 421.0688v184.502044a102.4 102.4 0 0 0 92.660622 101.944889c82.261333 7.850667 142.518044 11.764622 180.406045 11.764623s98.144711-3.913956 180.406044-11.787378A102.4 102.4 0 0 0 796.444444 605.548089v-184.479289a102.4 102.4 0 0 0-94.640355-102.104178c-81.373867-6.189511-140.947911-9.284267-178.426311-9.284266-37.4784 0-97.052444 3.094756-178.426311 9.284266z" fill="#FF3B3B" p-id="7469"></path><path d="M540.103111 455.111111c-14.017422 0-3.640889 23.210667 13.380267 37.114311 17.066667 13.9264 0 66.332444-30.606222 90.020978-30.606222 23.665778-6.712889 24.234667-4.209778 28.421689 7.395556 12.356267 22.914844-9.261511 34.816-16.952889l23.825066-35.157333c3.072-1.979733 15.542044-17.339733 17.544534-20.457245 7.805156-12.0832 2.161778-32.745244-9.489067-40.823466l-31.175111-37.728712a24.712533 24.712533 0 0 0-14.108444-4.437333z" fill="#FF3B3B" fill-opacity=".105" p-id="7470"></path><path d="M598.721422 461.346133a68.266667 68.266667 0 0 1-1.911466 114.733511l-60.165689 37.364623A68.266667 68.266667 0 0 1 432.355556 555.463111V477.866667a68.266667 68.266667 0 0 1 106.222933-56.752356l60.142933 40.231822zM500.622222 455.111111a22.755556 22.755556 0 0 0-22.755555 22.755556v77.596444a22.755556 22.755556 0 0 0 34.770489 19.342222l60.142933-37.387377a22.755556 22.755556 0 0 0 0.637155-38.229334l-60.142933-40.231822A22.755556 22.755556 0 0 0 500.622222 455.111111z" fill="#FF3B3B" p-id="7471"></path></svg>